1.9Hzhigh3min_grf.mot
version=1
nRows=15
nColumns 19
inDegrees=yes
endheader
time	1_ground_force_vx	1_ground_force_vy	1_ground_force_vz	1_ground_force_px	1_ground_force_py	1_ground_force_pz	1_ground_torque_x	1_ground_torque_y	1_ground_torque_z	2_ground_force_vx	2_ground_force_vy	2_ground_force_vz	2_ground_force_px	2_ground_force_py	2_ground_force_pz	2_ground_torque_x	2_ground_torque_y	2_ground_torque_z
            1.253500	            0.321186	            3.423537	            0.380737	           -0.233013	            0.005581	           -0.255695	            0.094837	            0.175723	            0.032877	            0.607863	            0.369324	            0.329552	           -0.232311	            0.006130	           -0.833667	           -0.319076	           -0.095142	           -0.151003
            1.254000	            0.091468	            3.063944	            0.150481	           -0.233013	            0.005581	           -0.255695	            0.179853	            0.231167	            0.004345	            0.659304	           -0.919043	            0.184148	           -0.232311	            0.006130	           -0.833667	           -0.262865	           -0.057061	           -0.169742
            1.254500	            0.046587	            2.161231	            0.467721	           -0.233013	            0.005581	           -0.255695	            0.091743	           -0.009269	            0.020408	            0.470657	           -0.552092	            0.373254	           -0.232311	            0.006130	           -0.833667	           -0.319278	           -0.056794	           -0.301670
            1.255000	            0.091714	            2.342685	            0.193245	           -0.233013	            0.005581	           -0.255695	           -0.065531	           -0.305077	            0.021479	            0.517528	           -0.552091	            0.420163	           -0.232311	            0.006130	           -0.833667	           -0.168903	           -0.075358	           -0.245251
            1.255500	           -0.000053	            2.162598	            0.146843	           -0.233013	            0.005581	           -0.255695	            0.161810	           -0.388267	            0.016655	            0.653925	            0.554646	            0.048620	           -0.232311	            0.006130	           -0.833667	           -0.262718	           -0.113306	           -0.301896
            1.256000	            0.046098	            2.342283	            0.285070	           -0.233013	            0.005581	           -0.255695	            0.174347	           -0.249185	           -0.074822	            0.748434	            0.369664	            0.376420	           -0.232311	            0.006130	           -0.833667	           -0.281350	           -0.151319	           -0.264323
            1.256500	           -0.045977	            1.982520	            0.100328	           -0.233013	            0.005581	           -0.255695	            0.163887	            0.064476	            0.054239	            0.610481	           -0.366934	            0.233067	           -0.232311	            0.006130	           -0.833667	           -0.243857	           -0.123027	           -0.207687
            1.257000	            0.045089	            2.884653	           -0.079458	           -0.233013	            0.005581	           -0.255695	            0.039744	            0.267762	            0.078094	            0.467978	            0.184668	            0.328955	           -0.232311	            0.006130	           -0.833667	           -0.187662	           -0.084811	           -0.264127
            1.257500	            0.229243	            2.342712	            0.192903	           -0.233013	            0.005581	           -0.255695	            0.197198	            0.212668	            0.028911	            0.515493	            0.000689	            0.328278	           -0.232311	            0.006130	           -0.833667	           -0.244138	           -0.047338	           -0.226267
            1.258000	            0.228802	            2.884098	            0.057654	           -0.233013	            0.005581	           -0.255695	            0.108904	           -0.055413	            0.027961	            0.514808	            0.185005	            0.282006	           -0.232311	            0.006130	           -0.833667	           -0.262992	           -0.028501	           -0.226192
            1.258500	            0.137769	            1.801700	            0.236668	           -0.233013	            0.005581	           -0.255695	            0.120448	           -0.314020	           -0.033442	            0.656666	           -0.182617	            0.233704	           -0.232311	            0.006130	           -0.833667	           -0.206466	           -0.066377	           -0.150950
            1.259000	           -0.183425	            2.162563	            0.147298	           -0.233013	            0.005581	           -0.255695	            0.143102	           -0.333056	            0.046715	            0.611084	           -0.550581	            0.091626	           -0.232311	            0.006130	           -0.833667	           -0.168724	           -0.122689	           -0.226569
            1.259500	            0.137784	            2.342301	            0.284843	           -0.233013	            0.005581	           -0.255695	            0.174568	           -0.129381	            0.023591	            0.888963	            0.370339	            0.329432	           -0.232311	            0.006130	           -0.833667	           -0.300179	           -0.132683	           -0.207697
            1.260000	            0.000306	            1.441142	            0.235463	           -0.233013	            0.005581	           -0.255695	            0.102049	            0.110707	            0.056564	            0.656769	           -0.183454	            0.468345	           -0.232311	            0.006130	           -0.833667	           -0.281522	           -0.094872	           -0.188719
            1.260500	           -0.000182	            1.622194	            0.052813	           -0.233013	            0.005581	           -0.255695	            0.109217	            0.240996	           -0.149680	            0.423787	           -0.552094	            0.326346	           -0.232311	            0.006130	           -0.833667	           -0.300349	           -0.085420	           -0.207528
